<svg id="visual" viewBox="0 0 900 600" width="900" height="600" xmlns="http://www.w3.org/2000/svg" xmlns:xlink="http://www.w3.org/1999/xlink" version="1.1"><path d="M0 205L82 205L82 109L164 109L164 79L245 79L245 217L327 217L327 253L409 253L409 181L491 181L491 205L573 205L573 157L655 157L655 103L736 103L736 73L818 73L818 301L900 301L900 187L900 0L900 0L818 0L818 0L736 0L736 0L655 0L655 0L573 0L573 0L491 0L491 0L409 0L409 0L327 0L327 0L245 0L245 0L164 0L164 0L82 0L82 0L0 0Z" fill="#0066ff"></path><path d="M0 259L82 259L82 187L164 187L164 169L245 169L245 289L327 289L327 301L409 301L409 235L491 235L491 271L573 271L573 205L655 205L655 181L736 181L736 175L818 175L818 385L900 385L900 259L900 185L900 299L818 299L818 71L736 71L736 101L655 101L655 155L573 155L573 203L491 203L491 179L409 179L409 251L327 251L327 215L245 215L245 77L164 77L164 107L82 107L82 203L0 203Z" fill="#0057d1"></path><path d="M0 475L82 475L82 355L164 355L164 415L245 415L245 385L327 385L327 427L409 427L409 349L491 349L491 391L573 391L573 457L655 457L655 457L736 457L736 397L818 397L818 499L900 499L900 403L900 257L900 383L818 383L818 173L736 173L736 179L655 179L655 203L573 203L573 269L491 269L491 233L409 233L409 299L327 299L327 287L245 287L245 167L164 167L164 185L82 185L82 257L0 257Z" fill="#0048a4"></path><path d="M0 535L82 535L82 463L164 463L164 517L245 517L245 463L327 463L327 481L409 481L409 475L491 475L491 451L573 451L573 517L655 517L655 541L736 541L736 457L818 457L818 547L900 547L900 505L900 401L900 497L818 497L818 395L736 395L736 455L655 455L655 455L573 455L573 389L491 389L491 347L409 347L409 425L327 425L327 383L245 383L245 413L164 413L164 353L82 353L82 473L0 473Z" fill="#053878"></path><path d="M0 601L82 601L82 601L164 601L164 601L245 601L245 601L327 601L327 601L409 601L409 601L491 601L491 601L573 601L573 601L655 601L655 601L736 601L736 601L818 601L818 601L900 601L900 601L900 503L900 545L818 545L818 455L736 455L736 539L655 539L655 515L573 515L573 449L491 449L491 473L409 473L409 479L327 479L327 461L245 461L245 515L164 515L164 461L82 461L82 533L0 533Z" fill="#0f284e"></path></svg>