<svg id="visual" viewBox="0 0 1920 1080" width="1920" height="1080" xmlns="http://www.w3.org/2000/svg" xmlns:xlink="http://www.w3.org/1999/xlink" version="1.1"><rect x="0" y="0" width="1920" height="1080" fill="#002233"></rect><path d="M0 822L18.8 819C37.7 816 75.3 810 113 786C150.7 762 188.3 720 226 699C263.7 678 301.3 678 339 674.8C376.7 671.7 414.3 665.3 452 671.5C489.7 677.7 527.3 696.3 565 725.3C602.7 754.3 640.3 793.7 678 791.3C715.7 789 753.3 745 791 724.5C828.7 704 866.3 707 903.8 730.3C941.3 753.7 978.7 797.3 1016.2 817.5C1053.7 837.7 1091.3 834.3 1129 833.7C1166.7 833 1204.3 835 1242 814.8C1279.7 794.7 1317.3 752.3 1355 731.3C1392.7 710.3 1430.3 710.7 1468 718.3C1505.7 726 1543.3 741 1581 745.2C1618.7 749.3 1656.3 742.7 1694 757.8C1731.7 773 1769.3 810 1807 812C1844.7 814 1882.3 781 1901.2 764.5L1920 748L1920 1081L1901.2 1081C1882.3 1081 1844.7 1081 1807 1081C1769.3 1081 1731.7 1081 1694 1081C1656.3 1081 1618.7 1081 1581 1081C1543.3 1081 1505.7 1081 1468 1081C1430.3 1081 1392.7 1081 1355 1081C1317.3 1081 1279.7 1081 1242 1081C1204.3 1081 1166.7 1081 1129 1081C1091.3 1081 1053.7 1081 1016.2 1081C978.7 1081 941.3 1081 903.8 1081C866.3 1081 828.7 1081 791 1081C753.3 1081 715.7 1081 678 1081C640.3 1081 602.7 1081 565 1081C527.3 1081 489.7 1081 452 1081C414.3 1081 376.7 1081 339 1081C301.3 1081 263.7 1081 226 1081C188.3 1081 150.7 1081 113 1081C75.3 1081 37.7 1081 18.8 1081L0 1081Z" fill="#0066FF" stroke-linecap="round" stroke-linejoin="miter"></path></svg>